<svg height="512pt" viewBox="-61 0 512 512" width="512pt" xmlns="http://www.w3.org/2000/svg"><path d="m330 135v122c0 8.398438-6.597656 15-15 15h-45v-137c0-41.398438-33.601562-75-75-75s-75 33.601562-75 75v137h-45c-8.402344 0-15-6.601562-15-15v-122c0-74.402344 60.601562-135 135-135s135 60.597656 135 135zm0 0" fill="#c6e2e7"/><path d="m330 135v122c0 8.398438-6.597656 15-15 15h-45v-137c0-41.398438-33.601562-75-75-75v-60c74.398438 0 135 60.597656 135 135zm0 0" fill="#a8d3d8"/><path d="m345 242h-300c-24.902344 0-45 20.097656-45 45v180c0 24.898438 20.097656 45 45 45h300c24.902344 0 45-20.101562 45-45v-180c0-24.902344-20.097656-45-45-45zm0 0" fill="#fdbf00"/><path d="m390 287v180c0 24.898438-20.097656 45-45 45h-150v-270h150c24.902344 0 45 20.097656 45 45zm0 0" fill="#ff9f00"/><path d="m260.097656 414.5c-13.5 23.097656-38.398437 37.5-65.097656 37.5-41.398438 0-75-33.601562-75-75s33.601562-75 75-75c26.699219 0 51.597656 14.398438 65.097656 37.5 3.902344 7.199219 1.5 16.199219-5.699218 20.398438-7.199219 4.203124-16.199219 1.800781-20.398438-5.398438-8.101562-13.800781-23.101562-22.5-39-22.5-24.902344 0-45 20.097656-45 45 0 24.898438 20.097656 45 45 45 15.898438 0 30.898438-8.699219 39-22.5 4.199219-7.199219 13.199219-9.601562 20.398438-5.398438 7.199218 4.199219 9.601562 13.199219 5.699218 20.398438zm0 0" fill="#54469d"/><g fill="#463b85"><path d="m260.097656 414.5c-13.5 23.097656-38.398437 37.5-65.097656 37.5v-30c15.902344 0 30.902344-8.699219 39-22.5 4.199219-7.199219 13.199219-9.601562 20.398438-5.398438 7.199218 4.199219 9.601562 13.199219 5.699218 20.398438zm0 0"/><path d="m260.097656 339.5c3.902344 7.199219 1.5 16.199219-5.699218 20.398438-7.199219 4.203124-16.199219 1.800781-20.398438-5.398438-8.101562-13.800781-23.101562-22.5-39-22.5v-30c26.699219 0 51.597656 14.398438 65.097656 37.5zm0 0"/></g></svg>