<?xml version="1.0" encoding="iso-8859-1"?>
<!-- Generator: Adobe Illustrator 19.0.0, SVG Export Plug-In . SVG Version: 6.00 Build 0)  -->
<svg version="1.1" id="Capa_1" xmlns="http://www.w3.org/2000/svg" xmlns:xlink="http://www.w3.org/1999/xlink" x="0px" y="0px"
	 viewBox="0 0 512 512" style="enable-background:new 0 0 512 512;" xml:space="preserve">
<path style="fill:#FEC478;" d="M361.228,195v-60c0-18.455-4.859-36.611-14.054-52.507c-4.148-7.172-13.324-9.621-20.495-5.474
	c-7.171,4.148-9.621,13.324-5.474,20.495c6.557,11.336,10.022,24.298,10.022,37.486v60c0,41.355-33.645,75-75,75s-75-33.645-75-75
	v-60c0-8.284-6.716-15-15-15s-15,6.716-15,15v60c0,28.543,11.454,54.458,30,73.404v36.885l-11.593,2.898
	c-8.037,2.009-12.924,10.153-10.914,18.19c1.703,6.816,7.819,11.365,14.54,11.365c1.204,0,2.429-0.146,3.649-0.451l22.955-5.739
	c6.678-1.669,11.362-7.669,11.362-14.552v-27.145c13.646,6.5,28.905,10.145,45,10.145c15.33,0,29.903-3.304,43.045-9.234V317
	c0,6.913,4.725,12.931,11.439,14.571l24.558,6c1.196,0.292,2.394,0.432,3.572,0.432c6.753,0,12.886-4.592,14.56-11.443
	c1.966-8.047-2.964-16.165-11.011-18.131l-13.118-3.205v-34.873C348.966,251.254,361.228,224.534,361.228,195z"/>
<g>
	<path style="fill:#1689FC;" d="M340.729,118.995c-6.916,0-13.135-4.811-14.649-11.846c-1.743-8.099,3.408-16.077,11.507-17.821
		c13.699-2.949,23.642-15.283,23.642-29.328c0-16.542-13.458-30-30-30c-14.044,0-26.379,9.943-29.328,23.642
		c-1.744,8.099-9.72,13.251-17.821,11.507c-8.099-1.744-13.25-9.723-11.507-17.821C278.476,19.904,303.145,0,331.228,0
		c33.084,0,60,26.916,60,60c0,28.084-19.904,52.752-47.327,58.656C342.836,118.885,341.775,118.995,340.729,118.995z"/>
	<path style="fill:#1689FC;" d="M348.014,95.783c0.112-0.268,0.221-0.536,0.317-0.81c0.077-0.219,0.144-0.439,0.21-0.659
		c0.071-0.237,0.14-0.473,0.199-0.713c0.06-0.243,0.111-0.487,0.158-0.732c0.045-0.23,0.087-0.46,0.121-0.692
		c0.035-0.242,0.063-0.484,0.086-0.726c0.024-0.247,0.044-0.494,0.056-0.743c0.01-0.221,0.014-0.44,0.014-0.661
		c0.001-0.275-0.004-0.549-0.018-0.824c-0.01-0.194-0.026-0.386-0.044-0.579c-0.027-0.296-0.06-0.592-0.105-0.887
		c-0.027-0.177-0.06-0.352-0.093-0.528c-0.056-0.298-0.118-0.594-0.193-0.89c-0.046-0.184-0.1-0.366-0.153-0.548
		c-0.08-0.273-0.164-0.546-0.26-0.816c-0.077-0.218-0.165-0.431-0.252-0.644c-0.093-0.226-0.184-0.452-0.289-0.675
		c-0.124-0.265-0.262-0.523-0.401-0.781c-0.068-0.126-0.123-0.257-0.196-0.382c-0.047-0.081-0.097-0.159-0.144-0.24
		c-0.03-0.05-0.06-0.101-0.09-0.151C328.156,49.955,293.444,30,256.228,30c-57.897,0-105,47.103-105,105c0,8.284,6.716,15,15,15h90
		c37.194,0,71.886-19.932,90.677-52.045c0.058-0.093,0.113-0.187,0.169-0.281c0.032-0.055,0.066-0.108,0.098-0.163
		c0.049-0.085,0.086-0.174,0.133-0.26c0.172-0.313,0.339-0.628,0.488-0.951C347.872,96.129,347.941,95.956,348.014,95.783z
		 M256.228,120h-73.491c6.968-34.192,37.271-60,73.491-60c23.67,0,45.92,11.308,59.991,30C302.149,108.692,279.898,120,256.228,120z
		"/>
</g>
<path style="fill:#A4D9F5;" d="M361.228,452h-30c-8.284,0-15-6.716-15-15s6.716-15,15-15h30c8.284,0,15,6.716,15,15
	S369.512,452,361.228,452z"/>
<path style="fill:#1689FC;" d="M383.829,318.553l-38.968-9.521c-0.019-0.008-0.036-0.019-0.055-0.027
	c-7.603-3.296-16.434,0.196-19.729,7.796C313.174,344.258,286.149,362,256.228,362c-29.961,0-57.001-17.775-68.888-45.286
	c-2.956-6.841-10.395-10.345-17.398-8.588c-0.102,0.023-0.204,0.035-0.307,0.061l-41.542,10.386
	c-38.904,9.726-63.219,48.147-55.354,87.469l18.78,93.9C92.921,506.953,99.077,512,106.228,512h299.545
	c7.15,0,13.307-5.047,14.709-12.058l18.78-93.9C447.126,366.719,422.812,328.298,383.829,318.553z M409.844,400.158L393.476,482
	H118.524l-16.368-81.842c-4.719-23.593,9.869-46.646,33.212-52.481l30.272-7.568C184.327,371.993,218.628,392,256.228,392
	c37.49,0,71.719-19.907,90.44-51.644l29.965,7.321C399.975,353.512,414.563,376.564,409.844,400.158z"/>
<g>
</g>
<g>
</g>
<g>
</g>
<g>
</g>
<g>
</g>
<g>
</g>
<g>
</g>
<g>
</g>
<g>
</g>
<g>
</g>
<g>
</g>
<g>
</g>
<g>
</g>
<g>
</g>
<g>
</g>
</svg>
