<?xml version="1.0" ?><svg style="enable-background:new 0 0 48 48;" version="1.1" viewBox="0 0 48 48" xml:space="preserve" xmlns="http://www.w3.org/2000/svg" xmlns:xlink="http://www.w3.org/1999/xlink"><g id="Icons"><g id="Icons_11_"><g><radialGradient cx="23.73475" cy="31.2271" gradientUnits="userSpaceOnUse" id="SVGID_1_" r="7.12186"><stop offset="0.09184" style="stop-color:#FAF707"/><stop offset="0.72959" style="stop-color:#FFFC00"/></radialGradient><path d="M29.8098,29.1577h-12.15c-1.036,0-1.9851,0.4274-2.6734,1.1085     c-0.6811,0.6882-1.1086,1.9943-1.1086,3.0303h19.7139C33.5917,31.2171,31.8891,29.1577,29.8098,29.1577z" style="fill:url(#SVGID_1_);"/><circle cx="23.73478" cy="21.5194" r="5.60787" style="fill:#E6E6E6;"/><path d="M33.7726,16.3598H32.466v-1.3062c0-0.1934-0.1563-0.3501-0.3496-0.3501     c-0.1934,0-0.3496,0.1567-0.3496,0.3501v1.3062h-1.3067c-0.1933,0-0.3496,0.1567-0.3496,0.3501     c0,0.1933,0.1563,0.3501,0.3496,0.3501h1.3067v1.3061c0,0.1934,0.1562,0.3501,0.3496,0.3501     c0.1933,0,0.3496-0.1567,0.3496-0.3501V17.06h1.3066c0.1934,0,0.3496-0.1568,0.3496-0.3501     C34.1222,16.5165,33.966,16.3598,33.7726,16.3598z" style="fill:#E6E6E6;"/></g></g></g></svg>